<svg xmlns="http://www.w3.org/2000/svg" width="866" height="288"><path fill="#6E6CEF" d="m80.938 32.853 2.935-.022 3.184-.008 3.382-.02c3.691-.02 7.382-.031 11.073-.041l3.826-.013q8.993-.028 17.985-.041 10.346-.015 20.693-.077c5.992-.034 11.984-.045 17.977-.05q3.81-.006 7.62-.034c3.561-.025 7.121-.024 10.683-.017l3.154-.039C195.882 32.58 204.803 37.905 214 46c10.633 11.204 15.475 23.65 15.404 39.027l.02 3.192c.019 3.454.015 6.908.01 10.363l.015 7.262q.014 7.597-.003 15.193c-.011 6.463.009 12.924.038 19.387.018 4.997.018 9.994.012 14.992q0 3.571.019 7.144c.09 20.013-1.848 35.97-16.062 51.268-15.449 13.678-32.903 13.63-52.426 13.57q-3.5.003-6.999.01-7.309.005-14.617-.017c-6.223-.017-12.445-.007-18.667.01-4.812.012-9.624.008-14.436 0q-3.44-.004-6.881.008c-3.213.008-6.425-.004-9.638-.02l-2.827.018C72.764 227.272 59.302 221.818 49 212c-10.44-11.76-14.143-24.743-14.161-40.13l-.015-3.047q-.021-4.978-.027-9.956l-.017-6.95q-.015-7.286-.02-14.571c-.006-6.2-.03-12.4-.058-18.6-.019-4.788-.024-9.575-.026-14.362q-.004-3.427-.024-6.853c-.103-19.322.868-35.394 14.82-50.136 9.075-8.598 18.707-14.477 31.466-14.542"/><path fill="#6A72EE" d="M122.246 82.059c5.407 3.248 5.407 3.248 6.754 5.941h4l1-2a93 93 0 0 1 4-1l1.813-1.125c3.403-1.362 5.676-.783 9.187.125 4.673 3.086 6.729 5.533 8 11l3.125.25c6.424 1.243 10.177 4.468 13.875 9.75 2.026 3.333 2.218 5.942 2.313 9.813.387 5.998 1.838 8.665 5.687 13.187 1.984 5.953 2.362 13.012-.27 18.785A53 53 0 0 1 175 155c-.534 2.228-.534 2.228-.875 4.75-1.412 7.546-5.087 11.814-11.125 16.25-4.611 2.69-9.81 2.675-15 2-2.923-1.082-5.301-2.4-8-4 .75-4.75.75-4.75 3-7 2.263.354 3.95.975 6 2 4.547.379 7.11.386 11.313-1.437C163.89 164.15 164.85 160.72 166 156c-5.273.113-5.273.113-9.562 2.563C155 160 155 160 151.563 160.438 148 160 148 160 145.5 158.438 144 156 144 156 144 152.375c1-3.375 1-3.375 3.063-4.812L149 147l-1-3 1-2h2l-1-5-1.547 2.48C146 142 146 142 142.547 142.488l-3.797-.175-3.828-.137L132 142l.032 3.732c.036 4.558.059 9.117.078 13.675q.016 2.963.04 5.925c.025 2.835.036 5.67.045 8.504l.032 2.686c0 2.16-.104 4.32-.227 6.478l-2 2c-4.556-.556-4.556-.556-6-2a104 104 0 0 1-.114-5.53v-3.579l.016-3.895.005-3.964q.006-5.226.024-10.45.014-5.33.02-10.658.016-10.463.049-20.924c-1.938.114-3.876.242-5.812.375-1.08.07-2.158.14-3.27.21-3.104.227-3.104.227-5.918 2.415-3.045-.19-5.246-.548-7.875-2.125-1.826-3.043-1.55-5.417-1.125-8.875 1.563-2.5 1.563-2.5 4-4 6.214.214 6.214.214 9 3v4h11c-.033-4.086-.1-8.166-.187-12.25l-.018-3.512c-.003-6.548-.003-6.548-3.123-12.031-3.727-1.684-5.789-1.407-9.672-.207-2.8 2.65-3.867 4.335-4.625 8.125C105 102 105 102 102.762 102.941q-2.657.736-5.352 1.32c-2.657.815-3.721 1.563-5.41 3.739-.932 2.797-1.135 4.543-1.125 7.438l-.008 2.308c.13 2.207.524 4.134 1.133 6.254l-1.496 1.242-1.942 1.633-1.933 1.617c-2.034 1.883-2.578 2.954-2.832 5.715-.193 6.938-.193 6.938 3.203 12.793l3.188 1.75C93 151 93 151 93.28 153.04a184 184 0 0 1-.25 4.71c-.047 3.413 1.056 5.479 2.969 8.25 3.722 3.284 7.074 3.302 11.816 3.203 2.151-.2 4.107-.619 6.184-1.203 2 3 2 3 1.938 5.563C115 176 115 176 113.062 177.313c-6.836 1.534-13.052 1.556-19.242-1.977-4.61-3.384-8.29-7.77-9.82-13.336l-.25-3.437c-.874-4.152-2.116-5.383-5.277-8.008-4.313-4.554-3.881-10.423-3.801-16.313.545-5.387 2.46-9.373 6.328-13.242a81 81 0 0 0 .313-5.625c.435-5.965 1.536-9.99 5.687-14.375 7.34-6 7.34-6 12-6l.25-2.187c1.1-4.127 2.967-6.595 6.512-9.016 5.461-3.048 10.62-4.502 16.484-1.738"/><path fill="#F7F4FD" d="M122.14 81.883c4.85 2.712 7.763 5.898 9.86 11.117.517 3.376.468 6.68.39 10.09-.005.944-.01 1.889-.017 2.862-.022 2.996-.072 5.99-.123 8.986q-.03 3.06-.055 6.119c-.044 4.981-.113 9.962-.195 14.943q2.938-.173 5.875-.375l3.305-.21c2.95-.148 2.95-.148 4.82-2.415.447-5.546.366-7.61-3-12 .074-3.57.617-5.46 2.688-8.375 3.044-2.14 4.663-2.233 8.312-1.625 2.375 1.563 2.375 1.563 4 4 .733 5.967.733 5.967-1.375 8.938C155 125 155 125 153 125l.246 1.688c.392 4.734-.073 7.954-2.871 11.874-2.687 2.704-4.01 3.403-7.865 3.774l-3.783-.121-3.818-.094L132 142l.032 3.732c.036 4.558.059 9.117.078 13.675q.016 2.963.04 5.925c.025 2.835.036 5.67.045 8.504l.032 2.686c0 2.16-.104 4.32-.227 6.478l-2 2c-4.556-.556-4.556-.556-6-2a104 104 0 0 1-.114-5.53v-3.579l.016-3.895.005-3.964q.006-5.226.024-10.45.014-5.33.02-10.658.016-10.463.049-20.924c-1.938.114-3.876.242-5.812.375-1.08.07-2.158.14-3.27.21-3.104.227-3.104.227-5.918 2.415-3.045-.19-5.246-.548-7.875-2.125-1.826-3.043-1.55-5.417-1.125-8.875 1.563-2.5 1.563-2.5 4-4 6.214.214 6.214.214 9 3v4h11c-.033-4.086-.1-8.166-.187-12.25l-.018-3.512c-.003-6.548-.003-6.548-3.123-12.031-3.727-1.684-5.789-1.407-9.672-.207-2.8 2.65-3.867 4.335-4.625 8.125C105 102 105 102 102.762 102.941q-2.657.736-5.352 1.32c-2.657.815-3.721 1.563-5.41 3.739-.932 2.797-1.135 4.543-1.125 7.438l-.008 2.308c.13 2.207.524 4.134 1.133 6.254l-1.496 1.242-1.942 1.633-1.933 1.617c-2.034 1.883-2.578 2.954-2.832 5.715-.193 6.938-.193 6.938 3.203 12.793l3.188 1.75C93 151 93 151 93.28 153.04a184 184 0 0 1-.25 4.71c-.047 3.413 1.056 5.479 2.969 8.25 3.722 3.284 7.074 3.302 11.816 3.203 2.151-.2 4.107-.619 6.184-1.203 2 3 2 3 1.938 5.563C115 176 115 176 113.062 177.313c-6.836 1.534-13.052 1.556-19.242-1.977-4.61-3.384-8.29-7.77-9.82-13.336l-.25-3.437c-.874-4.152-2.116-5.383-5.277-8.008-4.313-4.554-3.881-10.423-3.801-16.313.545-5.387 2.46-9.373 6.328-13.242a81 81 0 0 0 .313-5.625c.435-5.965 1.536-9.99 5.687-14.375 7.34-6 7.34-6 12-6l.25-2.187c1.1-4.127 2.967-6.595 6.512-9.016 5.447-3.04 10.451-4.359 16.379-1.914"/><path fill="#FBFBFC" d="M576 56c6.105 4.596 9.482 9.845 12 17q-2.685 1.004-5.375 2l-3.023 1.125C577 77 577 77 575 77l-1.812-2.75c-3.31-4.917-6.213-7.225-11.938-8.687-6.119-1.02-10.812.305-16.04 3.546-4.534 3.441-6.678 7.04-7.714 12.59-.844 6.94-.542 12.928 2.504 19.301 3.62 4.477 8.169 8.142 14 9 5.498.423 10.278-.072 15-3 2.352-2.532 4.092-5.09 6-8l13 3c-1.605 8.024-6.285 13.152-12.957 17.746-7.934 4.87-15.815 5.244-25.043 4.254-9.71-2.543-17.635-7.627-22.812-16.312-5.405-10.754-6.706-20.365-3.22-31.922 3.563-9.554 9.541-17.269 18.598-22.149C553.974 48.868 565.384 49.743 576 56"/><path fill="#886CE8" d="M120 90c2.75 2.138 3.88 3.27 4.454 6.749l-.063 3.11-.04 3.38-.101 3.511-.055 3.559A858 858 0 0 1 124 119h-11l-2-5c-4.572-1.133-4.572-1.133-8.937 0-1.665 3.133-1.497 5.526-1.063 9 1.558 2.148 1.558 2.148 4 3 2.698-.257 4.584-.792 7-2 2.04-.07 4.083-.084 6.125-.062l3.32.027L124 124v1l-1.934.148-2.504.227c-.823.07-1.647.14-2.496.21L115 126l-1 2c-3.062.625-3.062.625-6 1 .405 2.834.835 3.85 3 5.813 2.807 3.07 2.866 5.046 3 9.187a101 101 0 0 1-1.527 7.766c-.576 2.343-.576 2.343-.473 5.234-2.776 2.673-5.224 3.476-9 4v-2l-5 4 1 4h3v2l1.793-.473c7.848-1.933 7.848-1.933 12.207-.527v2h3l1 7-1.812.75c-2.474 1.414-3.622 2.9-5.188 5.25l-1.582-.55c-6.075-2.076-12.211-3.814-18.418-5.45v-3l2.875 1.5c5.589 2.397 11.505 2.338 17.25.5l1.875-1-1-6-1.723.484c-4.84 1.096-9.574 1.257-14.152-.734-4.655-3.833-5.514-6.749-6.11-12.629C92 154 92 154 93 151l-2.25-.75c-2.998-1.363-4.63-2.751-6.75-5.25-1.459-4.376-1.752-8.437-1-13 2.003-3.433 4.423-6.211 8-8l-.484-1.723c-1.096-4.84-1.257-9.574.734-14.152 3.076-3.735 5.195-5.194 10-5.812L105 102l.188-2.625c1.06-4.409 2.656-6.144 5.812-9.375 3.584-1.195 5.37-.963 9 0"/><path fill="#FBFBFC" d="m684 76 1 1 2-3c2.82-.293 2.82-.293 6.125-.187l3.32.082L699 74c.93 2.79 1.126 4.467 1.13 7.348l.009 2.65-.006 2.85.003 2.932q0 3.067-.006 6.135c-.005 3.139 0 6.277.007 9.415q0 2.978-.004 5.955l.006 2.857-.01 2.64-.002 2.327C700 121 700 121 699 123h-12l-1-4-1.328 1.094c-6.01 4.398-11.364 4.968-18.672 3.906-6.83-2.116-11.6-6.463-15.25-12.562-3.325-6.533-4.038-13.778-2.066-20.91 2.993-7.243 6.898-12.766 14.191-15.966C670.688 71.85 676.494 72.709 684 76m-20 13c-3.264 5.475-3.357 8.991-2 15 1.843 4.147 3.789 6.26 8 8 3.817.642 7.311.837 10.844-.914 3.69-2.804 5.362-5.586 6.156-10.086-.024-6.067-1.537-10.253-5.625-14.812C675.225 83.113 668.954 84.4 664 89M596 51h12l1 27 6-4c5.22-1.74 9.544-1.469 14.688.188 5.797 3.172 8.528 6.55 10.703 12.62.97 3.492.981 6.809.902 10.41l-.013 2.253a757 757 0 0 1-.092 7.029 2741 2741 0 0 0-.042 4.805A1565 1565 0 0 1 641 123h-13l-.044-2.766q-.093-5.103-.218-10.204-.051-2.205-.084-4.408a609 609 0 0 0-.142-6.352l-.08-3.857c-.456-3.604-1.257-5.535-3.432-8.413-3.139-1.57-5.539-1.352-9-1-3.987 3.034-5.31 5.143-6 10a188 188 0 0 0-.316 6.395l-.127 3.642-.12 3.775-.13 3.834A4869 4869 0 0 0 608 123h-12a834 834 0 0 1-1.13-44.706c.005-3.178 0-6.356-.007-9.534q0-3.045.004-6.092l-.006-2.865.01-2.626.002-2.307C595 53 595 53 596 51M364.75 77.75c4.615 4.615 6.94 9.919 8.25 16.25v9h-35c1.245 5.8 1.245 5.8 4 7.313l2 .687 2 1c4.569.548 7.918.85 11.625-2.062.784-.64 1.567-1.28 2.375-1.938 4.148.146 7.433.86 11 3-.081 2.766-.567 4.511-2.414 6.598-6.527 5.851-12.69 6.866-21.324 6.718-7.32-.71-12.508-3.723-17.262-9.316l-1.687-1.937C324.37 106.867 324.256 100.135 325 93c2.037-7.235 6.048-13.415 12.563-17.312 9.347-4.59 18.518-3.454 27.187 2.062M340 89l-2 5h22c-.544-4.857-.544-4.857-3-7.312-6.05-3.404-12.251-3.012-17 2.312"/><path fill="#FBFBFB" d="M508.813 78.688c6.18 6.533 8.581 13.82 8.464 22.656-.758 7.262-4.793 13.92-10.277 18.656-6.507 4.372-13.342 4.973-21 4-7.64-1.814-12.562-6.689-17-13-3.317-6.537-3.008-14.644-1.383-21.668 2.553-6.561 7.26-11.047 13.363-14.43 9.947-4.268 18.893-1.578 27.832 3.785M481 91c-1.287 2.573-1.168 4.502-1.187 7.375l-.043 2.898c.238 2.818.706 4.37 2.23 6.727 3.262 2.73 5.317 3.916 9.563 4.438 4.844-.617 7.167-2.305 10.75-5.5 2.465-4.292 2.462-8.1 1.687-12.938-1.962-3.854-4.083-7.042-8-9-7-1.033-10.332.777-15 6"/><path fill="#FAFAFB" d="M380 74h13l.012 2.858c.027 3.514.077 7.026.14 10.54q.036 2.276.044 4.553c.009 2.188.05 4.373.097 6.56l.048 3.984c.816 4.34 2.205 5.83 5.659 8.505 3.5.833 3.5.833 7 0 3.454-2.675 4.843-4.164 5.66-8.505.015-1.315.03-2.629.047-3.983l.046-2.131c.043-2.232.052-4.462.06-6.693q.034-2.28.076-4.557c.062-3.71.095-7.42.111-11.131h13v49h-12l-2-2-2.312 1.5c-5.624 2.287-11.394 2.694-17.176.598-1.886-.942-3.708-2.009-5.512-3.098v-2h-2c-5.152-8.752-4.46-17.233-4.25-27.062q.03-2.468.055-4.936c.043-4.001.112-8.001.195-12.002M306.563 74.063c5.247 2.957 8.55 6.326 10.504 12.075.967 4.004 1.19 7.678 1.128 11.764l-.008 2.19c-.011 2.282-.036 4.564-.062 6.846q-.016 2.336-.027 4.673-.035 5.695-.098 11.389h-13l-.044-2.766q-.093-5.103-.218-10.204-.051-2.205-.084-4.408a609 609 0 0 0-.142-6.352l-.08-3.857c-.456-3.604-1.257-5.535-3.432-8.413-3.092-1.546-5.594-1.294-9-1-2.907 2.219-3.84 3.52-5 7a187 187 0 0 0-.316 6.855l-.063 2.005q-.097 3.164-.183 6.328l-.131 4.294q-.16 5.259-.307 10.518-2.97.039-5.937.063l-3.34.035C274 123 274 123 273 122a67 67 0 0 1-.13-4.412l-.009-2.842.006-3.09-.003-3.15q0-3.303.006-6.607c.005-3.384 0-6.769-.007-10.153q0-3.201.004-6.402l-.006-3.09.01-2.842.002-2.514C273 75 273 75 274 74c2.02-.072 4.042-.084 6.063-.062l3.347.027L286 74v4h2v-2c6.642-2.796 11.419-4.068 18.563-1.937"/><path fill="#F5F7FD" d="M149 84c4.673 3.086 6.729 5.533 8 11l3.125.25c6.424 1.243 10.177 4.468 13.875 9.75 2.026 3.333 2.218 5.942 2.313 9.813.387 5.998 1.838 8.665 5.687 13.187 1.984 5.953 2.362 13.012-.27 18.785A53 53 0 0 1 175 155c-.534 2.228-.534 2.228-.875 4.75-1.412 7.546-5.087 11.814-11.125 16.25-4.611 2.69-9.81 2.675-15 2-2.923-1.082-5.301-2.4-8-4 .75-4.75.75-4.75 3-7 2.263.354 3.95.975 6 2 4.547.379 7.11.386 11.313-1.437C163.89 164.15 164.85 160.72 166 156c-5.273.113-5.273.113-9.562 2.563C155 160 155 160 151.563 160.438 148 160 148 160 145.5 158.438c-1.5-2.438-1.5-2.438-1.5-6 1-3.438 1-3.438 2.625-5.438 3.483-1.466 5.783-.998 9.375 0 1.21 2.059 1.21 2.059 2 4 6.493-.845 10.785-1.561 15-7 2.194-4.388 1.408-10.366.25-15-1.487-2.379-2.653-3.026-5.25-4l-2-1 .36-2.633c1.121-7.28 1.121-7.28-.985-14.055-4.249-4.137-8.508-4.61-14.191-5.359-2.24-.112-2.24-.112-4.211 1.094C145 104 145 104 141 103l-1-19c3.228-1.614 5.549-.805 9 0"/><path fill="#FBFBFC" d="M715 59h12v15h11v11h-11l1 26 10 1v11c-5.206 1.735-10.15 1.663-15.312-.187-3.516-2.371-5.794-5.026-7.688-8.813-.154-2.104-.25-4.212-.316-6.32l-.127-3.809-.12-3.996-.13-4.02q-.16-4.927-.307-9.855l-8-1a758 758 0 0 1-.062-4.937l-.036-2.778C706 75 706 75 707 74c2.67-.141 5.324-.042 8 0z"/><path fill="#FAFAFB" d="M464 74v12l-4.187.188c-3.731.405-4.735.75-7.813 3.187-3.055 4.01-3.16 7.128-3.316 12.043l-.127 3.799-.12 3.97-.13 4.006A4932 4932 0 0 0 448 123h-13V74h13l1 4 2.25-1.937c4.588-3.442 7.19-3.2 12.75-2.063"/><path fill="#5A75D8" d="M197 35c.655.26 1.31.52 1.984.79 12.682 6.003 22.79 16.366 27.738 29.545 3.688 10.889 2.978 22.384 2.907 33.735q0 3.621.007 7.241.004 7.552-.04 15.104c-.033 6.423-.027 12.845-.008 19.268.01 4.976.001 9.952-.014 14.928q-.008 3.55.002 7.101c.033 19.969-2.002 35.815-16.103 51.112-8.637 7.6-19.136 12.47-30.72 12.371l-1.987-.008a885 885 0 0 1-6.203-.062q-2.12-.016-4.24-.027-5.162-.035-10.323-.098v-1l2.292-.076q5.166-.176 10.333-.362l3.605-.119 3.497-.127 3.205-.11c3.077-.207 6.037-.648 9.068-1.206l1-5c7.277-2.379 7.277-2.379 11-1h2l.75-3.25c1.249-3.746 2.275-5.27 5.25-7.75v2l4-1c.934-3.01 1.044-3.867 0-7 1-2 1-2 4-4l1-3h2c5.122-11.676 3.164-26.621 3.168-39.152l.01-6.447q.009-6.731.007-13.462c0-5.72.014-11.44.031-17.16q.015-6.65.013-13.299 0-3.162.013-6.323c.8-16.364.8-16.364-2.242-32.157-2.442-1.204-2.442-1.204-5-2-2.73-4.193-3.506-8.062-4-13h-2l-2-2c-3.083-.167-3.083-.167-6 0l-1-5-2 3h-2v-6h-11v-2h-2v2h-2v-4l-42-1v-1a4787 4787 0 0 1 20.178-.537q3.431-.087 6.862-.187c3.29-.094 6.582-.175 9.874-.253l3.088-.097c5.108-.107 9.22.009 13.998 2.074"/><path fill="#CAB7E5" d="M423 177q3.063-.001 6.125-.062C432 177 432 177 433 178c.284 4.535.232 9.082.25 13.625l.063 3.855c.05 11.89.05 11.89-3.313 17.52-3.533 3.36-6.309 4.268-11.062 4.438-4.078-.184-6.786-.668-9.938-3.438-1.812-2.687-1.812-2.687-3-5 3-2 3-2 7-2l2 3c1.902.476 1.902.476 4 .375l2.125.023c2.286-.257 2.286-.257 3.875-3.398v-4l-1.723 1.004c-3.81 1.667-7.335 1.087-11.277-.004-3.686-2.823-5.821-5.5-7-10-.476-5.23.07-8.606 3-13 5.373-4.142 8.393-5.239 15-4m-9.437 7.563c-2.193 3.42-2.193 5.447-1.563 9.437 1.96 3.126 1.96 3.126 5 5 3.233 0 5.084-.292 7.656-2.281 1.715-2.193 1.747-3.46 1.719-6.219l.023-2.344c-.494-2.674-1.225-3.555-3.398-5.156-3.895-.496-6.095-.58-9.437 1.563"/><path fill="#8A65F2" d="m93 117 1 3 3-1 1 4 1.813.375C102 124 102 124 105 126c2.634-.321 4.627-.814 7-2 2.04-.07 4.083-.084 6.125-.062l3.32.027L124 124v1l-1.934.148-2.504.227c-.823.07-1.647.14-2.496.21L115 126l-1 2c-3.062.625-3.062.625-6 1l-1 4h-9l1 2 2-1c3.159-.275 5.414-.231 8.375.938 2.62 3.325 1.933 6.984 1.625 11.062h-2l.125 3.875c.07 2.18.07 2.18-.125 4.125l-2 2c-2.935-.367-3.864-.864-6-3l.063-3-.063-3-3-2 2 2c.125 3.625.125 3.625 0 7l-2 1-1.312-2.437c-1.493-2.841-1.493-2.841-4.688-3.563-1.187-2.062-1.187-2.062-2-4l-3 1-.375-2.375c-.416-2.766-.416-2.766-2.625-4.625-.125-3.125-.125-3.125 0-6h2l.313-1.812c.793-2.526 1.643-3.537 3.687-5.188l3-1-.562-2.875C92 119 92 119 93 117"/><path fill="#CAB7E7" d="M544 166h8l.854 2.228 3.896 10.147 1.344 3.504c2.343 6.1 4.715 12.18 7.216 18.217C566 202 566 202 566 204h-7c-3-6.75-3-6.75-3-9h-16l-.937 3.938c-.938 3.937-.938 3.937-2.063 5.062q-3.5.061-7 0c4.13-12.85 9.13-25.416 14-38m4 9a1638 1638 0 0 0-2.5 5.875l-1.406 3.305c-1.215 2.627-1.215 2.627-1.094 4.82h10c-.632-5.053-2.135-9.296-4-14z"/><path fill="#CBB7E8" d="M609 166h7q2.28 5.46 4.535 10.931 1.141 2.754 2.291 5.505c2.919 7.094 5.388 14.1 7.174 21.564h-7l-3-9-15 1-3 8h-7c.64-3.647 1.624-6.958 2.926-10.422l1.166-3.11 1.22-3.218 1.186-3.172c2.307-6.121 4.76-12.139 7.502-18.078m3 9q-1.011 2.37-2 4.75l-1.125 2.672c-1.09 2.756-1.09 2.756-.875 6.578h9c-.632-5.053-2.135-9.296-4-14z"/><path fill="#C7B4E4" d="m759 177 2 2 1-2h6v27h-8l-2 1c-5.34.35-8.665.468-13-3-3.788-4.329-4.296-8.212-4.215-13.785.426-4.386 2.515-6.57 5.653-9.465 4.463-3.048 7.303-3.007 12.562-1.75m-7.75 6.125c-2.355 1.962-3.412 2.942-4.25 5.875.147 3.516.67 5.504 2.625 8.438 2.397 1.888 2.397 1.888 5.938 1.562 3.398-.728 3.398-.728 5.375-2.687 1.685-3.668 1.505-6.719.437-10.563-2.773-3.53-6.052-4.291-10.125-2.625"/><path fill="#CAB8E7" d="M357.75 178.063c3.155 2.717 4.517 5.852 5.25 9.937l-1 5h-19c1.457 4.007 1.457 4.007 3.813 4.75 2.455.28 4.719.445 7.187.25l2-2c2.625.375 2.625.375 5 1v4c-3.281 3.029-6.041 4.29-10.437 4.5-4.583-.247-8.208-1.272-11.563-4.5-2.45-3.819-3.274-7.621-2.937-12.125 1.024-4.234 2.054-6.613 4.937-9.875 6.033-3.529 10.333-3.417 16.75-.937m-13.187 5.75c-1.757 2.01-1.757 2.01-1.563 4.187h13l-2-5c-5.016-1.32-5.016-1.32-9.437.813"/><path fill="#CBB9E7" d="M459.25 179.313c3.906 3.816 3.906 3.816 4.75 6.687v7h-20c1.5 4 1.5 4 4 5 3.5.25 3.5.25 7 0l2-2c2.625.375 2.625.375 5 1v4c-3.322 3.067-6.054 4.28-10.5 4.438-4.165-.231-7.085-.896-10.5-3.438-1.684-2.543-2.932-5.147-4-8l-.738-1.937c-.558-4.396 2.436-8.478 4.738-12.063 2.563-2.062 2.563-2.062 5-3l1.938-.75c4.702-.57 7.452.316 11.312 3.063M444 186v2h13c-.574-4.202-.574-4.202-4-6-4.676 0-5.696.88-9 4"/><path fill="#7C6BF0" d="M120 90c2.75 2.138 3.88 3.27 4.454 6.749l-.063 3.11-.04 3.38-.101 3.511-.055 3.559A858 858 0 0 1 124 119h-11l-2-5-2-1v-2h-5c-.082-3.044.024-5.072 1-8l.25-3.312c.957-4.706 2.386-6.324 5.75-9.688 3.584-1.195 5.37-.963 9 0"/><path fill="#C9B8E3" d="M488 177c2.527 2.19 4.5 4 6 7a75 75 0 0 1 .098 4.57l-.01 2.715-.026 2.84-.013 2.863q-.018 3.507-.049 7.012h-7l-.184-3.867-.253-5.008-.12-2.55-.127-2.442-.11-2.254c-.106-1.968-.106-1.968-1.206-3.879-2.477-1.025-3.631-1.126-6.187-.25-2.13 1.201-2.13 1.201-2.813 4.25-.228 2.733-.417 5.45-.562 8.188l-.131 2.271q-.158 2.77-.307 5.541h-6v-27h6v2l3.125-1.562c3.68-1.551 6.003-1.785 9.875-.438"/><path fill="#C8B5E5" d="M307 177c3.06 2.71 4.738 4.387 5.4 8.46.092 2.82.037 5.595-.087 8.415l-.069 2.953A382 382 0 0 1 312 204h-6l-.148-3.867-.227-5.008c-.03-.842-.062-1.684-.094-2.55l-.117-2.442-.095-2.254c-.173-2.12-.173-2.12-2.319-3.879-3-.417-3-.417-6 0-1.976 2.963-2.264 3.68-2.414 7.012l-.117 2.295-.094 2.38-.117 2.417c-.094 1.965-.177 3.93-.258 5.896h-6v-27h6v2l2.563-1.562c4.18-1.748 6.121-1.772 10.437-.438"/><path fill="#C6B3E1" d="M793 177c4.23 2.477 4.23 2.477 6 5 .742 3.795.567 7.464.375 11.313l-.082 3.11q-.107 3.79-.293 7.577h-6l-.184-3.613-.254-4.7-.119-2.38-.127-2.295-.11-2.11c-.162-2.124-.162-2.124-1.206-4.902-2.497-1.12-3.61-1.145-6.187-.187-1.963 1.068-1.963 1.068-2.813 3.187-.233 2.88-.42 5.741-.562 8.625l-.131 2.43q-.159 2.972-.307 5.945h-6v-27h6l1 2 2.125-1.562c3.631-1.816 5.038-1.69 8.875-.438"/><path fill="#CBB8E7" d="M676.375 178.875 679 181v3c-2.875.625-2.875.625-6 1l-2-2c-2.584-.167-2.584-.167-5 0v3l2.082.55 2.73.762 2.708.739c2.611 1 3.86 1.684 5.48 3.949.398 2.156.398 2.156.375 4.5l.023 2.344c-.492 2.667-1.27 3.518-3.398 5.156-4.069 1.356-7.746 1.529-12 1-5.517-2.759-5.517-2.759-6.875-6.25L657 197l6-2 2 3c3.584.25 3.584.25 7 0v-3l-2.047-.48c-4.221-1.105-7.295-1.953-10.64-4.833-1.679-3.436-1.489-5.081-.313-8.687 4.539-6.354 11.215-5.547 17.375-2.125"/><path fill="#CCB9E7" d="M650.813 178.313c2.187 1.687 2.187 1.687 3 3.875L654 184c-2.875.625-2.875.625-6 1l-2-2c-2.584-.167-2.584-.167-5 0v3l2.3.629c7.816 2.422 7.816 2.422 10.204 4.984 1.637 3.31 1.547 5.227.433 8.7-2 2.773-2.855 3.47-5.937 4.687-4.253.586-7.95.425-11.937-1.187-2.384-2.095-3.167-3.798-4.063-6.813l6-2 2 3c3.584.25 3.584.25 7 0v-3l-2.047-.48c-4.221-1.105-7.295-1.953-10.64-4.833C633 187 633 187 632.938 183.938c1.316-3.64 2.838-4.864 6.062-6.937 4.445-1.482 7.615-.646 11.813 1.313"/><path fill="#C9B6E7" d="m709.5 176.75 2.344.484c2.446.869 3.594 1.703 5.156 3.766v3l-6 1v-2h-7v3l2.047.48c4.182 1.094 7.29 1.966 10.64 4.77 1.77 3.709 1.401 5.833.313 9.75-1.895 2.585-2.888 2.963-6 4-5.553.364-9.26.273-14-3-1.375-2.687-1.375-2.687-2-5l6-2 2 3c1.964.577 1.964.577 4.125.688L711 199c-.12-1.977-.12-1.977-1-4-2.217-1.035-2.217-1.035-4.875-1.562-3.571-.839-5.907-1.404-8.125-4.438-.644-5.07-.644-5.07 0-8 3.842-4.05 7.071-5.444 12.5-4.25"/><path fill="#7D5FC6" d="m42 57 1 4h-2l.75 2.688C42 67 42 67 40 69.438c-2.43 2.517-2.43 2.517-1.687 6.312L39 79l-1 1c-.1 2.946-.136 5.869-.13 8.815l-.005 2.804q-.004 4.616.002 9.233l-.003 6.402q-.002 6.726.006 13.453.006 8.61-.004 17.22-.005 6.618 0 13.238 0 3.173-.002 6.347-.003 4.448.007 8.897l-.007 2.639c.017 4.747.356 9.255 1.136 13.952q.301 2.717.563 5.438l.253 2.62L40 193h2v2l4-3 2 1c-.75 5.75-.75 5.75-3 8h2c.544 3.058 1 5.888 1 9-10.312-10.552-13.313-24.133-13.275-38.47l-.015-3.049a2029 2029 0 0 1-.01-9.907l-.014-6.937q-.01-7.259-.002-14.518c.006-6.176-.01-12.352-.034-18.529-.015-4.774-.016-9.548-.013-14.323q0-3.414-.015-6.828C34.564 82.723 34.668 70.148 42 57"/><path fill="#CCB9E8" d="M327 169v8h6c1 3 1 3 0 6h-6l1 15 6 1v5c-3.057 1.528-5.63 1.232-9 1-3.185-1.76-3.833-2.499-5-6-.07-2.739-.094-5.45-.062-8.187l.013-2.272q.02-2.77.049-5.541h-5v-5l5-1v-8c3.01-.934 3.867-1.044 7 0"/><path fill="#CBB7E6" d="M726 168q3.012.43 6 1c.125 5.75.125 5.75-1 8h7v6l-6 1 1 14 5 1c.043 1.666.04 3.334 0 5-1 1-1 1-4.25 1.375-3.75-.375-3.75-.375-6.465-2.348-3.076-4.075-2.867-6.892-2.597-11.84l.068-2.388c.058-1.934.148-3.867.244-5.799h-5v-5l5-1-.062-3.937A59 59 0 0 1 725 169z"/><path fill="#C8B5E4" d="M808 168q3.012.43 6 1v8h6v6h-6l1 15 5 1v6c-7.362.49-7.362.49-10.437-1.875-2.963-4.029-2.68-7.411-2.625-12.25l.013-2.285q.02-2.795.049-5.59h-4v-6h4l-.062-3.937A59 59 0 0 1 807 169z"/><path fill="#CBB7E7" d="M503 168q2.514.428 5 1v8h7v6h-7l1 16h6c.043 1.666.04 3.334 0 5-1 1-1 1-4.25 1.313-4.486-.374-5.768-.974-8.75-4.313-.613-3.105-.472-6.1-.312-9.25l.068-2.547c.059-2.068.148-4.136.244-6.203h-5v-6h5l-.062-3.937A59 59 0 0 1 502 169z"/><path fill="#7477E8" d="M140 85c1.187 3.56 1.351 6.973 1.563 10.688l.13 2.126q.158 2.593.307 5.186c2.46-.476 4.852-.955 7.25-1.687 5.451-.62 10.252.709 14.813 3.687 1.937 2 1.937 2 1.937 4l-2.312-.937A111 111 0 0 0 158 106q-2.505-.99-5-2v4h-3v2l3.25-.25c3.75.25 3.75.25 6.188 2.25l1.562 2-2 1v9l-3-1 1-1c.424-4.66.424-4.66-1.125-8.937-2.746-1.556-4.77-1.38-7.875-1.063-2.302.898-2.302.898-4 2l-3-2h5l2-6h-8l-2-6h-4l-1 35h11v1h-12l-.076-3.884q-.142-7.134-.296-14.268-.066-3.087-.125-6.175-.088-4.438-.187-8.876l-.05-2.788-.06-2.608-.048-2.288c-.16-2.138-.576-4.053-1.158-6.113l3-1 1-2c2.089-.674 3.804-1 6-1"/><path fill="#C7B1E8" d="M380 165h7v39h-7z"/><path fill="#C8B2E7" d="M371.063 164.938 374 165c.716 13.077 1.36 25.95 0 39h-7q-.037-8.09-.055-16.18-.008-2.755-.02-5.51c-.013-2.633-.018-5.266-.023-7.9l-.015-2.503c0-1.97.051-3.939.113-5.907 1-1 1-1 4.063-1.062"/><path fill="#CDB8E7" d="M274 166h7v38h-7z"/><path fill="#CAB8E7" d="M571 166h7v38h-7z"/><path fill="#7775D3" d="m87.622 32.66 3.345-.002c3.609.002 7.217.025 10.826.049q3.776.009 7.553.013 8.888.017 17.774.064c7.417.037 14.833.053 22.25.07q19.815.049 39.63.146v1l-1.683.026q-20.295.31-40.59.653-9.814.166-19.63.316-9.472.144-18.945.31-3.612.063-7.226.113c-3.375.048-6.75.109-10.125.171l-3.013.035c-6.17.13-11.491.636-17.038 3.563C69 40 69 40 66 39l-3 7h-1v-5h-3v2l-3-1c1.256-.958 2.53-1.89 3.813-2.813l2.144-1.582c8.138-4.293 16.612-5.042 25.665-4.946"/><path fill="#FAFBFC" d="m182 68 2 1a65 65 0 0 1 1.125 3.875c.921 2.692 1.386 3.829 3.848 5.32 2.452.93 2.452.93 6.027 1.805v2l-1.898.34c-2.648.639-4.753 1.268-7.102 2.66-1.394 2.944-1.79 5.767-2 9l-3-1-.625-3.875c-.347-2.199-.347-2.199-1.375-4.125-2.872-1.615-5.781-2.364-9-3v-2l3.75-.937c2.858-1.034 4.005-1.684 5.672-4.266.973-2.243 1.836-4.468 2.578-6.797"/><path fill="#7564C2" d="M52 209c4.875 4.75 4.875 4.75 6 7 5.463 2.005 5.463 2.005 11 1l1 6 2.438-.062C75 223 75 223 76 224c2.913.24 5.805.414 8.724.543l2.719.126c9.99.437 19.98.557 29.979.647l5.9.063q7.655.082 15.308.153 7.855.077 15.71.161 15.33.16 30.66.307v1q-20.445.106-40.892.155-9.495.022-18.99.071-9.172.048-18.343.059-3.49.008-6.981.032c-3.272.022-6.543.025-9.815.024l-2.883.032C72.889 227.31 59.305 221.882 49 212v-2z"/><path fill="#F5EDFE" d="M107 134c2.375.938 2.375.938 4 3 .333 3.028.229 5.967 0 9h-2l.125 3.875c.07 2.18.07 2.18-.125 4.125l-2 2c-2.935-.367-3.864-.864-6-3l.125-2.812c.187-3.322.187-3.322-2.187-5.75C97 142 97 142 97.062 139.375c2.055-5.204 4.394-6.054 9.938-5.375"/><path fill="#5B77E8" d="m178 64 1.875.563c2.167.674 2.167.674 4.125-.563l1 3 4-2 2 3-3 3h2v3l4 1-1 4c-2.75.063-2.75.063-6-1-1.772-2.845-2.914-5.837-4-9-2.094 2.888-2.094 2.888-3.125 6.063-2.079 3.256-2.517 3.443-6.062 4.312L170 80v2l1.898.516 2.477.734 2.46.703C179 85 179 85 180.282 86.906c.946 2.755.85 5.204.719 8.094h-4l-2-9h-3v2l-3-1V77h8l-1-5h3v-6l-2 1z"/><path fill="#C8B2E9" d="M394 177h6v27h-7q-.042-6.469-.062-12.937l-.026-3.733-.01-3.545-.016-3.285C393 178 393 178 394 177"/><path fill="#C6B4E1" d="M687.5 176.875C690 177 690 177 691 178c.087 1.927.107 3.857.098 5.785l-.01 3.545-.025 3.732-.014 3.745q-.018 4.596-.049 9.193h-7q-.042-6.469-.062-12.937l-.026-3.733-.01-3.545-.016-3.285c.153-3.37.246-3.457 3.614-3.625"/><path fill="#F9F3FD" d="m69 167 2 1 .625 3.375c.95 3.641.95 3.641 3.281 4.754A57 57 0 0 0 81 178v2l-3.812.438c-2.236.428-2.236.428-4.188 1.562-1.613 2.874-2.364 5.78-3 9-2-1-2-1-2.633-2.848L66 182l-8-2v-2l1.645-.629c4.029-1.735 6.618-2.944 8.355-7.121z"/><path fill="#8668E6" d="m82 96 7 1c0 3.947-1.525 5.016-4 8-2.052 3.313-2.218 5.952-2.312 9.813C82.3 120.81 80.848 123.477 77 128c-1.115 3.345-1.133 5.918-1.125 9.438l-.008 3.433c.11 2.581.374 4.678 1.133 7.129l-3-1-1-2-2-2 1-3a81 81 0 0 0-.062-4.312c-.042-5.16.47-9.049 4.187-12.875L78 121v-3h3l-.254-1.723c-.662-5.023-.568-9.24.254-14.277l-1-2c.938-2.125.938-2.125 2-4"/><path fill="#875FE2" d="M36 144h1l.076 2.826q.144 5.23.296 10.461.065 2.257.125 4.513.089 3.258.187 6.516l.11 3.952c.2 3.63.645 7.141 1.206 10.732q.301 2.717.563 5.438l.253 2.62L40 193h2v2l4-3 2 1c-.75 5.75-.75 5.75-3 8h2c.544 3.058 1 5.888 1 9-6.701-6.857-12.142-16.564-12.114-26.38v-2.668l.016-2.87.005-2.947c.005-3.107.018-6.215.03-9.322q.008-3.16.014-6.319.017-7.748.049-15.494"/><path fill="#8368DA" d="M59 41h3l1 6q-2.988.57-6 1l-1-1-1 2h-2l-1 3h-2l-.875 2.75C48 58 48 58 46.875 60.188 45.783 62.115 45.783 62.115 46 65h-5v-4h2l-.273-2.672c.35-4.256 1.706-5.552 4.648-8.578l2.46-2.578C53.993 43 53.993 43 56.626 42.875L59 43z"/><path fill="#C5B2E2" d="m413 207 2 3c1.907.4 1.907.4 4 .25l2.125-.047c1.964-.103 1.964-.103 3.875-1.203l4 3c-5.292 5.292-5.292 5.292-9.812 5.313-4.214-.098-6.922-.443-10.188-3.313-1.812-2.687-1.812-2.687-3-5 3-2 3-2 7-2"/><path fill="#7A69E5" d="M121 125h3v60l6 2-1.937.313L126 188l-1 3-2-4-4 1 1-6-3 1 1-3 3-1c.972-2.917 1.152-4.888 1.205-7.93l.06-3.033.051-3.267.063-3.35q.097-5.304.183-10.607l.131-7.186q.161-8.813.307-17.627z"/><path fill="#8970E7" d="M98 133c9.961-.618 9.961-.618 13.625 1.563 3.27 5.795 2.296 11.025.848 17.203-.576 2.343-.576 2.343-.473 5.234-3.333 3-3.333 3-6 3v-2l-2.937-.75C100 156 100 156 99.125 154.188 99 152 99 152 99.063 149.5c-.068-2.718-.692-4.186-2.063-6.5 2.5 1.625 2.5 1.625 5 4 .188 3.125.188 3.125 0 6l2 2c2.108-.319 2.108-.319 4-1l1-8h2c-.087-1.46-.195-2.918-.312-4.375l-.176-2.46c-.342-2.544-.342-2.544-3.512-4.165-2.057-.24-2.057-.24-4.187-.125L99 135l-1 2z"/><path fill="#5B74E4" d="M199 36v2l2 1c-1 1-1 1-3.504 1.098l-3.059-.035-3.066-.028L189 40v-2h-2v2h-2v-4l-42-1v-1a4787 4787 0 0 1 20.178-.537q3.431-.087 6.862-.187c3.29-.094 6.582-.175 9.874-.253l3.088-.097c5.985-.126 10.565.358 15.998 3.074"/><path fill="#CFBEE9" d="M415 180h6l1 3-1.715.367-2.223.508-2.214.492c-2.055.463-2.055.463-2.848 2.633a78 78 0 0 0-.062 4.625l.027 2.477L413 196c-6.875-.875-6.875-.875-8-2-.412-5.253.343-8.461 3-13l7 1z"/><path fill="#C8B1EA" d="m488 186 1.875.563c2.167.674 2.167.674 4.125-.563v18h-7q-.04-3.937-.062-7.875l-.026-2.262c-.025-5.636-.025-5.636 1.088-7.863"/><path fill="#5A75E8" d="M168 98h3v2h3c2.48 2.48 2.52 3.963 3.188 7.375 1.421 6.171 4.038 10.856 7.484 16.129L186 126l-1 3-3 1c-4.975-6.025-6.407-10.373-6.664-18.125-.521-4.462-2.644-7.394-5.336-10.875z"/><path fill="#8B6BE5" d="M65 175c-3.625 3-3.625 3-7 3v2l2.813.313c3.327.717 4.3.95 6.187 3.687 1.188 3.188 1.188 3.188 2 6l.734-1.68 1.016-2.195.984-2.18c1.513-2.325 2.67-3.027 5.266-3.945 2.75.375 2.75.375 5 1-2.312 2.063-2.312 2.063-5 4l-3-1 .188 2.313C74 189 74 189 72.812 190.875 71 192 71 192 68.5 192.125 66 191 66 191 64.188 187.438L63 184h-6l-1-7c3.135-1.858 5.375-2.201 9-2"/><path fill="#D3C4E9" d="M371.063 164.938 374 165v9h-1v-8l-3 1q-.075 6.353-.11 12.708-.015 2.161-.04 4.324c-.025 2.07-.036 4.14-.045 6.21l-.032 3.777c-.09 3.099-.09 3.099 2.227 4.981l-3 1c1.255 2.51 2.5 2.871 5 4h-7q-.037-8.09-.055-16.18-.008-2.755-.02-5.51c-.013-2.633-.018-5.266-.023-7.9l-.015-2.503c0-1.97.051-3.939.113-5.907 1-1 1-1 4.063-1.062"/><path fill="#6571F0" d="M153 104c8.193.193 8.193.193 11.563 3.563L166 110l-3 1-1 7 3 1-1 3-4-2 1-2h-2l1-6-10-2c0-2 0-2 2-4z"/><path fill="#CDBDE3" d="M394 177h6v24h-1v-21h-4v22h5v2h-7q-.042-6.469-.062-12.937l-.026-3.733-.01-3.545-.016-3.285C393 178 393 178 394 177"/><path fill="#CEBFEA" d="M380 165h7v8h-1v-7l-3 1-1 37h-2z"/><path fill="#8A69EB" d="M78 150c5.595 3.65 5.595 3.65 6.703 7.348q.424 2.604.805 5.214c.691 3.426 2.366 5.713 4.492 8.438l2 3c-4.3.195-6.009-.004-10-2v-14h-3c-.597-2.763-1-5.16-1-8"/><path fill="#F2EBFE" d="M107.625 112c3.375 1 3.375 1 4.813 3.063L113 117l-2 1c-1.134 2.017-1.134 2.017-2 4-2.875.188-2.875.188-6 0-2-3-2-3-3-6 2.506-3.308 3.367-4 7.625-4"/><path fill="#6577DE" d="m183 131 3 1c-.403 13.592-.403 13.592-5 19a788 788 0 0 0-3 5l-2 3-.375 3.5c-.625 3.5-.625 3.5-2.664 5.219L171 169c2.307-14.589 2.307-14.589 7.598-19.57 3.526-3.595 3.734-7.29 4.027-12.18l.227-3.547z"/><path fill="#EBECFD" d="M152.172 150.41 154 151q.54 1.966 1.063 3.938l.597 2.214L156 159c-1 1-1 1-4.312 1.313-3.688-.313-3.688-.313-6.125-2-1.823-2.697-1.917-4.124-1.563-7.313l1 2 2.25-1.562C150 150 150 150 152.172 150.41"/><path fill="#8D6CE3" d="M69 161h1l.75 2.563c1.412 3.882 3.005 6.968 5.25 10.437l3 1 3-2v3l3 1-4 3v-2l-2.812-.375C75 177 75 177 72 175c-1.187-3.625-1.187-3.625-2-7l-.812 1.813c-1.179 2.17-2.419 3.495-4.188 5.187.114-1.46.242-2.917.375-4.375.07-.812.14-1.624.21-2.46C66 166 66 166 68 164z"/><path fill="#E8EAFE" d="m147 112 7 5c-1 4-1 4-2 5l-2.437-.062c-2.732-.229-2.732-.229-4.563 2.062-2-3-2-3-1.812-6 .812-3 .812-3 3.812-6"/><path fill="#C8B7DF" d="m340 182 3 2c.188 2.625.188 2.625 0 5h8v2l11 1v1c-3.312.029-6.625.047-9.937.063l-2.866.025-2.724.01-2.524.016C342 193 342 193 341 192l-3-1c-1-3-1-3 .438-6.187.515-.929 1.03-1.857 1.562-2.813"/><path fill="#F6F2FE" d="M106.063 143.938 109 144c.054 1.625.093 3.25.125 4.875l.07 2.742C109 154 109 154 107 156c-2.935-.367-3.864-.864-6-3-.017-2.757.523-5.267 1-8 1-1 1-1 4.063-1.062"/><path fill="#CEBBE8" d="M689 178h2v26h-7v-1h5v-3h-3v-2h3l-1-11h-3l1-4h2z"/><path fill="#5978E8" d="m194 79 5 1 1 4-3 1v3c-3.47-.458-6.674-.891-10-2v7l-4 2c.583-3.571 1.32-6.78 3-10 2.878-1.74 5.698-2.46 9-3z"/><path fill="#CBB5E8" d="M464 188v5h-12v-2h-6l-1-2c2.216-.712 3.553-1.139 5.813-.437 2.424.658 2.424.658 5.687-.563 3.245-.927 4.465-1.214 7.5 0"/><path fill="#C6B0EB" d="M326 184h1l1 14 4 1-1 4c-2.25.688-2.25.688-5 1-2.312-1.312-2.312-1.312-4-3v-2h3z"/><path fill="#9580E6" d="M98 133c9.961-.618 9.961-.618 13.625 1.563 1.85 3.28 2.31 5.667 2.375 9.437-1.375 3.125-1.375 3.125-3 6-.7 2.736-.7 2.736-1 5l-2-1 1-8h2c-.087-1.46-.195-2.918-.312-4.375l-.176-2.46c-.342-2.544-.342-2.544-3.512-4.165-2.057-.24-2.057-.24-4.187-.125L99 135l-1 2z"/><path fill="#D2C3E7" d="M400 166c.625 2.375.625 2.375 1 5-2 2-2 2-4.562 2.188C394 173 394 173 393 172c-.04-2-.043-4 0-6 2.667-1.333 4.167-.671 7 0"/><path fill="#D6C9E8" d="M691 166c.625 1.813.625 1.813 1 4l-2 3c-2.5.313-2.5.313-5 0l-2-2c.25-2.562.25-2.562 1-5 2.667-1.333 4.167-.671 7 0"/><path fill="#6879DC" d="m179 67 3 2c-1.011 3.233-2.117 6.17-4 9-2.773 1.413-4.85 1.633-8 2v2l7 2c-3.623 1.208-4.641.543-8-1v-6h8l-1-5h3z"/><path fill="#8274D8" d="M120 91c1.976 1.14 1.976 1.14 4 3 .454 2.635.454 2.635.39 5.762l-.038 3.388-.102 3.537-.055 3.573A872 872 0 0 1 124 119h-11v-3l10 1q-.172-5.376-.375-10.75c-.03-1.016-.062-2.032-.094-3.078l-.117-2.969-.095-2.73c-.33-2.561-1.029-4.254-2.319-6.473"/><path fill="#C5B4E1" d="m812 198 8 1v6c-7.75.125-7.75.125-10-1v-2l4-1v-2z"/><path fill="#C3B4DB" d="M493 186h1v18h-7v-16h1v12l4 1 1 1z"/><path fill="#CFBFE2" d="M775 180c2.84 0 5.237.403 8 1a283 283 0 0 1-5 5h-1v18h-2z"/><path fill="#E1E1FD" d="M146 124h2l1 7h2l1-6h1c.294 3.053.445 5.957 0 9-2.5 2.563-2.5 2.563-5 4l-4-2 2-3c.241-2.286.241-2.286.125-4.687l-.055-2.45z"/><path fill="#F2F1F3" d="M698 96h1c.196 4.125.38 8.25.563 12.375l.17 3.563.146 3.398.143 3.142C700 121 700 121 699 123h-12v-1l9-1c.724-3.311 1.164-6.478 1.316-9.863l.127-2.686.12-2.763.13-2.823q.159-3.432.307-6.865"/><path fill="#8584E3" d="m139 87 2 1c.312 2.55.513 5.004.625 7.563l.117 2.154c.095 1.76.177 3.522.258 5.283l6-1-1 3-7 1c-1.254-3.763-1.107-7.272-1.062-11.187l.013-2.272q.02-2.77.049-5.541"/><path fill="#CDBBE8" d="m413 207 2 4h-5v2h5l1 3c-2.187.375-2.187.375-5 0-1.99-1.84-3.39-3.792-5-6 2.5-3 2.738-3 7-3"/><path fill="#CCBAEB" d="M621 196c2.791.782 5.445 1.617 8 3 1 2.688 1 2.688 1 5h-7c-1.765-3.088-2-4.233-2-8"/><path fill="#6272EE" d="m156 80 4 1 1 6-4 3-4-4z"/><path fill="#D1C0EE" d="M358.75 196.313 361 197v4c-3 2-3 2-5.262 1.758l-2.425-.633-2.45-.617L349 201l3-2 1.875-1.687C356 196 356 196 358.75 196.313"/><path fill="#8461D6" d="M36 182c3.852 3.274 3.601 6.132 4 11h2l-1 5h2v4l2 1h-3c-3.242-7.07-5.61-13.197-6-21"/><path fill="#6578DC" d="M168 98h3v2h3c3.588 3.588 3.507 9.102 4 14-.103 2.481-.448 4.57-1 7h-1l-.043-2.344c-.334-7.29-1.499-11.892-5.957-17.656z"/><path fill="#5775ED" d="M224 191h1c.125 5.75.125 5.75-1 8h-3v3h-4l-1-4 1.938-.812c2.393-1.075 2.393-1.075 3.062-4.188h2z"/><path fill="#7E68E4" d="m82 96 7 1c0 3 0 3-1.187 4.75C86 103 86 103 83.375 102.813 81 102 81 102 80 100c.938-2.125.938-2.125 2-4"/><path fill="#5374EC" d="m178 64 1.875.563c2.167.674 2.167.674 4.125-.563l1 3 4-2 2 3-3 2-2 3v-3l-2.937-.875C180 68 180 68 179 66l-2 1z"/><path fill="#8664F0" d="m46 54 3 1-1.5 3.313C45.812 61.8 45.812 61.8 46 65h-5v-4h2v-4h2z"/><path fill="#CEBDEA" d="m793 177 2 1c-1.286 2.572-2.334 3.01-5 4-2.25-.375-2.25-.375-4-1v-2l-3-1c3.583-2.343 5.92-1.976 10-1"/><path fill="#CABCE1" d="M515 199c.043 1.666.04 3.334 0 5-1 1-1 1-4.312 1.313C507 205 507 205 504.563 203L503 201l3.25.125c3.284-.11 5.888-2.125 8.75-2.125"/><path fill="#7475E3" d="m142 119 1.938 2.438c1.468 1.837 1.468 1.837 3.062 3.562.37 5.841.37 5.841 0 8l-3 2a100 100 0 0 1 0-5l1-1-1.437-1.125c-2.103-2.523-2.283-4.65-2.563-7.875z"/><path fill="#E8F2FD" d="M182 68c2 1 2 1 2.852 3.066l.773 2.496c.26.827.52 1.653.79 2.504L187 78l-1.875-.5c-2.086-.576-2.086-.576-4.125-.5h-3z"/><path fill="#C6B4DD" d="M438 187h4v2h2v2l7 1v1q-2.125.04-4.25.063l-2.39.035c-2.267-.094-4.189-.466-6.36-1.098l-1 2c-.625-1.812-.625-1.812-1-4z"/><path fill="#C9BADF" d="M386 173h1v31h-5v-2l3-1z"/><path fill="#C5B4DD" d="M506 176v2l-3 1c-.733 2.015-.733 2.015-1 4h-5v-6c3.153-.7 5.727-1 9-1"/><path fill="#8172E0" d="m101 82 6 1-1.242 1.355C102.744 87.737 100.339 90.58 99 95l-3-1 1.375-2.062C99.168 88.696 100.088 85.58 101 82"/><path fill="#7675E6" d="M120 81q2.688.173 5.375.375l3.023.21C131 82 131 82 133 84l-2 4c-3 0-3 0-4.937-1.812L124 84a194 194 0 0 0-4-3m10 2 1 2Z"/><path fill="#C6B1E6" d="M482.125 177.75c3.787.33 6.44 1.634 9.875 3.25-1.375 1.5-1.375 1.5-3 3h-2v-2l-5 1-3-4c1-1 1-1 3.125-1.25"/><path fill="#717DE0" d="m159 88 2 2-1 2 3 1v2l4 1-1 2c-3.142-.737-6.106-1.556-9-3-1.562-3.187-1.562-3.187-2-6 1.875-.625 1.875-.625 4-1"/><path fill="#C9B9DC" d="M544 166h7l-1 3-5-1-.375 3.938c-.21 2.214-.21 2.214-.625 4.062l-2 1-1 3-2-1z"/><path fill="#BFB0D9" d="M373 179h1c1.215 8.114.763 15.854 0 24l-5-1v-2h4z"/><path fill="#D3C0EC" d="m730 183 2 1v11l-2 1-1-3h-3v-3l3-1z"/><path fill="#D2BEF0" d="M432 181v12l-5-1 1-4 3 1v-3l-5-1c3.75-4 3.75-4 6-4"/><path fill="#D1C0EA" d="m701 185 3 1v2l-3 2 9 3c-4.92 1.23-6.585.29-11-2l-2-3c1.813-1.562 1.813-1.562 4-3"/><path fill="#937DE7" d="m118.188 123.875 3.292.055 2.52.07v1l-1.934.148-2.504.227-2.496.21L115 126l-1 2h-11v-3l2.813.625c4.396.517 7.557-1.854 12.374-1.75"/><path fill="#8566F0" d="M59 41h3l1 6-6 1v-2l-3 1 2-4h3z"/><path fill="#8167DB" d="m65 36 2 1-.875 1.688C64.959 41.085 63.966 43.516 63 46h-1v-5h-3v2l-3-1z"/><path fill="#CFB8ED" d="M808 183h1l1 10h2l1 4h-2v2l-3 1z"/><path fill="#C6B3E4" d="m641.188 186 2.812 1-1 2c-2.314.73-4.648 1.401-7 2l-3-5c3.11-1.555 4.916-1.026 8.188 0"/><path fill="#637ADD" d="M192 83v3l-3 1-2-1v7l-4 2c.397-1.63.818-3.254 1.25-4.875l.703-2.742C186 85 186 85 187.984 83.68 190 83 190 83 192 83"/><path fill="#5E76D9" d="M221 199h2c-1.59 5.09-4.745 8.875-8 13l-1-3 2-3 1-3c2.063-.687 2.063-.687 4-1z"/><path fill="#D1C2E6" d="M712 177v2c-.592-.07-1.183-.14-1.793-.21-4.768-.437-4.768-.437-8.918 1.546-1.533 1.826-1.533 1.826-3.289 4.664l-1-4c5.432-4.551 7.99-5.19 15-4"/><path fill="#D2C3EA" d="m700 195 3 3c-2 1-2 1-5 1l3 1c.688 2.063.688 2.063 1 4-2.375-.687-2.375-.687-5-2-1.312-2.625-1.312-2.625-2-5z"/><path fill="#C6AFEB" d="m730 192 1 8-3 2c-2-5.625-2-5.625-2-9 3-1 3-1 4-1"/><path fill="#C2B2DB" d="M462.188 187.375 464 188v5h-12v-1l7-1-2-2c3-2 3-2 5.188-1.625"/><path fill="#D2C3EC" d="m457 185 7 1v2q-2.999.51-6 1l-3.75.625C451 190 451 190 449 189l1-2 7 1z"/><path fill="#EFE2FD" d="M63 176c2 1 2 1 4 4-.375 2.188-.375 2.188-1 4v-2l-8-2v-2c2.375-1.062 2.375-1.062 5-2"/><path fill="#907FE4" d="M103 138h4l1 5-5 1a88 88 0 0 1-1-5z"/><path fill="#C3AFE0" d="m425 197 3 1-2 1c1.722 3.248 1.722 3.248 5 4l-4 1v2l2 1-4 2 .063-3.25c-.05-2.93-.32-4.99-1.063-7.75z"/><path fill="#D1BEEC" d="m746 191 2 1c.625 3.063.625 3.063 1 6l-6 2c.557-3.344 1.352-6.033 3-9"/><path fill="#E1EBFE" d="m178 79-4 2 6 2-1 4v-2l-9-3v-2c5.75-2.125 5.75-2.125 8-1"/><path fill="#D3BFF0" d="M336 189c2 0 2 0 3.625 1.5L341 192l1-2 3 2-2 1 1 4-3-3-2 1-3-2z"/><path fill="#C6B6DE" d="M326 184h1l1 14 4 1v2l-6-1c-.936-3.793-.983-6.937-.562-10.812l.308-2.958z"/><path fill="#D2C1E7" d="M679 181v3l-6 1-2-4c3.287-.8 4.71-1.097 8 0"/><path fill="#7880DB" d="M149 116q2.514.428 5 1l-1 4h-4c-.562-1.937-.562-1.937-1-4z"/><path fill="#7E86E2" d="M152 102c5.78.252 9.83.561 14 5v2c-3.087-1.2-6.04-2.52-9-4-1.661-.68-3.327-1.35-5-2z"/><path fill="#C4ACE9" d="M410.5 194.688c2.797 1.468 3.434 2.405 4.5 5.312h-5l-.875-1.937c-.953-2.215-.953-2.215-3.125-3.063 2-1 2-1 4.5-.312"/><path fill="#C3B3DA" d="M780 188h1v16l-5-1 1-3 3 1z"/><path fill="#D3C1EF" d="M353 188v2l5 1v1h-8v-2l-7-1c3.578-2.34 5.922-1.927 10-1"/><path fill="#D1BFEC" d="m743 182 5 1v4h-7z"/><path fill="#C6B5E4" d="M687 166c3 2 3 2 3.688 4.125L691 172c-1.875.625-1.875.625-4 1l-2-2c.536-3.536.536-3.536 2-5"/><path fill="#6778E3" d="M178 85c3.161 4.215 3.337 5.06 3 10h-4z"/><path fill="#C6B8DF" d="m596 199 7 1-1 4h-7z"/><path fill="#7A7FDE" d="m150 150 4 1-1 5-4-1z"/><path fill="#9282E2" d="m105 117 5 1-1 4-5-1z"/><path fill="#8972E3" d="m82 102 3 1-.937 2.438C82.814 109.622 82.366 113.663 82 118h-1c-1-5.963-1.066-10.287 1-16"/><path fill="#C4AFE3" d="M564 197v3l-7 1v-4c2.667-1.333 4.167-.671 7 0"/><path fill="#CFB8F3" d="M536 190c2.625.938 2.625.938 5 2v3l-4 1-.375-1.937L536 192l-2-1z"/><path fill="#CEB8EE" d="m793 181 4 2a56.5 56.5 0 0 1-4 7c-1.125-6.75-1.125-6.75 0-9"/><path fill="#D6C3F1" d="M357 180h3l2 5c-2.49.687-4.379 1-7 1l-1-3 3-1z"/><path fill="#C6B4DB" d="m808 168 6 1v9c-2.523-3.124-4.273-6.38-6-10"/><path fill="#7883DA" d="M171 127c2.464 2.31 3.878 4.096 4.336 7.488.037 2.565.05 4.975-.336 7.512l-2 2 .07-1.828.055-2.422.07-2.39c-.214-2.593-1.03-4.066-2.195-6.36z"/><path fill="#8763EA" d="M66 217h3l1 6h5v1h-7l-1-3-2-1z"/><path fill="#8D5FEE" d="m46 192 2 1-1 6-6-1v-3c2.375-1.75 2.375-1.75 5-3"/><path fill="#E5F3FD" d="M184 85h2l-2 9-3-1c.547-3.375 1.055-5.082 3-8"/><path fill="#E2F1FF" d="m188 78 7 2v2l-8 3 1-3 2-1-2-1z"/><path fill="#C1AFE4" d="m340 182 3 2-3 6-3-1z"/><path fill="#E6EEFD" d="M150 85c4.214 2.883 5.76 5.043 7 10l-4-2v-4h-2z"/><path fill="#C3AAEA" d="M686 191h3c1.125 4.75 1.125 4.75 0 7h-3z"/><path fill="#D3C3EE" d="m664 184-1 3h-2l-1 3c-2-3-2-3-2-6 3.75-1.125 3.75-1.125 6 0"/><path fill="#D1BFE6" d="M717 181v3l-6 1v-4c3-1 3-1 6 0"/><path fill="#CDB0F0" d="M473 179h3l-1 5-5 1 1-3h2z"/><path fill="#CFBEEA" d="M642 176c5.538.615 5.538.615 7.875 2.563L651 180l-1 2c-3.694-1.231-5.351-3.208-8-6"/><path fill="#D1C0EC" d="M324 168v6l-3 1c-1-1-1-1-1.062-3.562L320 169z"/><path fill="#C2B3DC" d="M734 199h4c.043 1.666.04 3.334 0 5-1 1-1 1-3.562 1.063L732 205v-2h3z"/><path fill="#C5AEEA" d="M715 196v3l-3 1 1-3zm-4 4 2 1-1 3h-5z"/><path fill="#D3C1EE" d="m438 192 6 1-1 3-3-1v2h-2z"/><path fill="#C6B4E7" d="M409 185h4l-1 7-1-4h-2v2h-2z"/><path fill="#DFEBFD" d="M182 138h1c.324 4.649-.224 7.224-3 11h-1c-.393-4.449.847-7.142 3-11"/><path fill="#7173E1" d="M147 108h2v2h5v1l-3.312.938A170 170 0 0 0 144 114l-3-2h5z"/><path fill="#826AEE" d="M67 36h6l-2 4-5-2z"/><path fill="#C8B9E4" d="M356 196q2.514.428 5 1v3l-3 1-3-4z"/><path fill="#C6B2EA" d="M605 180h4l-1 3h-2l1 3h-4l-1-3h3z"/><path fill="#D1BAF2" d="m778 180 5 1-5 5c-1.125-3.75-1.125-3.75 0-6"/><path fill="#C2B4DA" d="M734 177h4v6l-2-1-3-1z"/><path fill="#C7B4E5" d="m397 167 3 4-1 2-4-1-1-4z"/><path fill="#896AF7" d="m99 155 8 2-4 4v-2l-4-2z"/><path fill="#8575E5" d="m107 94 2 1-1 3 2 1c-1.375 1.5-1.375 1.5-3 3h-2c.875-5.75.875-5.75 2-8"/><path fill="#5375EB" d="m201 39 4 2c-1.375 2.5-1.375 2.5-3 5h-2c-.043-2-.04-4 0-6z"/><path fill="#5373F0" d="m211 206 1 2h2v2h-2v2l-4-1z"/><path fill="#C1B0DC" d="m514 199 1 4c-3.375.625-3.375.625-7 1l-2-2z"/><path fill="#F1E4FE" d="m69 167 2 1c.625 2.563.625 2.563 1 5l-2 1-3-2z"/><path fill="#7A7BE6" d="M151 136v5h-3v2h-2c.465-2.698 1.575-7 5-7"/><path fill="#7278DC" d="m155 124 1 3-1 1a236 236 0 0 0-1 7h-3l1-1c.281-2.32.448-4.639.621-6.969L153 125z"/><path fill="#8167F1" d="M82 96h3l-.562 2.375c-.698 2.596-.698 2.596.562 4.625l-5-2z"/><path fill="#7077DD" d="M153 82c.687 2.49 1 4.379 1 7-2.44-1.926-4.8-3.8-7-6z"/><path fill="#DBCFF4" d="m728 168 4 1c.125 2.875.125 2.875 0 6l-2 2z"/><path fill="#876BD9" d="M81 153c3 2 3 2 3.512 4.383l.175 2.742.2 2.758L85 165c-2.172-2.172-2.452-3.096-3.125-6l-.508-2.125C81 155 81 155 81 153"/><path fill="#5875EF" d="M183 154v6l-4-2v-3c2-1 2-1 4-1"/><path fill="#D9E1FD" d="M167 118c1.991 2.986 2.941 5.597 4 9l-5-3z"/><path fill="#EAEBFD" d="m141 97 2 1 1 3 3 2a88 88 0 0 1-5 1c-1-1-1-1-1.062-4.062z"/><path fill="#DEE7FE" d="m182 68 2 2h-2v6l-4 2z"/><path fill="#7F6CD5" d="m78 34-2 1v2l-9-1c4.216-2.108 6.398-2.177 11-2"/><path fill="#CEBDE9" d="m812 198 4 1-2 2v-2zm0 3 2 1v3l-4-1v-2z"/><path fill="#C8B3E3" d="m811 197 1 2h2v2l-5 2-1-3 3-1z"/><path fill="#C8B2E5" d="M670 189c1.5 1.375 1.5 1.375 3 3v2h-5l-1-3z"/><path fill="#CCB4E9" d="m342 186 1 3 2 1-6 2-1-2h2z"/><path fill="#D2BAF1" d="m321 181 6 2-2 2-3-1v5h-1z"/><path fill="#8463E9" d="m81 173 1 3 3 1-4 3-2-5z"/><path fill="#C7B7DE" d="M275 166h4c-.312 1.938-.312 1.938-1 4l-3 1z"/><path fill="#E3EDFD" d="M173 155h1c.25 6.625.25 6.625-2 10-.977-6.055-.977-6.055-1-8z"/><path fill="#947BE2" d="M75 128c1.032 3.095.975 4.526.563 7.688l-.31 2.449L75 140h-1l-1-11z"/><path fill="#F1EFF2" d="M737 112h1v11l-4-1 2-2c.458-1.972.458-1.972.625-4.125z"/><path fill="#846BE0" d="M109 111v1c-3.877 1.193-6.916 2-11 2 1-2 1-2 2.688-2.625 2.796-.454 5.483-.44 8.312-.375"/><path fill="#F3F1F4" d="M696 80h3c.625 2.313.625 2.313 1 5l-2 3c-2-2-2-2-2.125-5.125z"/><path fill="#F4F4F4" d="m667 75-9 5v-3c5.625-3.125 5.625-3.125 9-2"/></svg>